<svg xmlns="http://www.w3.org/2000/svg" viewBox="0 0 380 274"><defs><style>.cls-1{fill:#ffdb18}.cls-2{fill:#2bee56}.cls-3{fill:#f42d8c}.cls-4{fill:#00c2ef}</style></defs><title>iWeb-Logo</title><g id="Layer_1" data-name="Layer 1"><g id="Layer_2-2" data-name="Layer 2"><g id="Layer_1-2" data-name="Layer 1-2"><path class="cls-1" d="M69.18 200.88l9.59-46S62 73.8 61.76 73a18.15 18.15 0 0 0-15.92-13.44h-37c-5.24 0-7.12 2.77-6.43 6.43 0 0 25.81 124.11 28.28 135.58.48 2.3 4.23 15.13 17.11 15.13 13.45 0 19.45-8.24 21.38-15.82z"/><path class="cls-2" d="M206.34 272.28h.59A23.38 23.38 0 0 0 229.29 254s9.89-47.17 20.67-98.89L229.39 56.3C228.15 48 220 38.06 210 37.71h-86.82c16.34 1.67 19.19 17.7 19.38 18.59 0 0 41.34 197.88 41.44 198.58a23.12 23.12 0 0 0 22.34 17.4z"/><path class="cls-3" d="M368.33 1.71h-67.54c-6.87 0-19.32 2.31-23.24 21.16 0 0-44.56 213.26-48.26 231.11-3.55 13.37-14.58 18.59-23.14 18.3h96.66c18.37 0 23.44-14.41 24.29-18.3L377.43 11.6c1.09-5.14-.79-9.89-9.1-9.89z"/><path class="cls-4" d="M142.56 56.3c-1.7-9.67-9.51-18.69-21.46-18.69-13.35 0-19.58 8.9-21.56 18.1 0 0-29.11 139.81-30.36 145.17-2 8.55-9 15.82-21.48 15.82h73.6c7.34 0 15.13-6.05 17.31-16.42l16.91-81.49S143 58.63 142.56 56.3z"/></g></g></g></svg>